<svg xmlns="http://www.w3.org/2000/svg" version="1.1" xmlns:xlink="http://www.w3.org/1999/xlink" xmlns:svgjs="http://svgjs.dev/svgjs" width="100%" height="100%" viewBox="0 0 1000 600"><rect width="1000" height="600" x="0" y="0" fill="#1976d2"/><g><circle r="166.66666666666666" cx="435.29105631510413" cy="457.5133193452276" fill="#fbc02d" transform="matrix(0.4653336928611517,0,0,0.46533369286115167,0,87.10363178437098)"/><path d="M325.70852341452354 532.5133152974151L325.70852341452354 382.5133197941111L414.82443429900115 382.5133197941111L414.82443429900115 397.98483210044407L343.9501731623713 397.98483210044407L343.9501731623713 449.5565397882205L409.9324894554749 449.5565397882205L409.9324894554749 464.8217652638023L343.9501731623713 464.8217652638023L343.9501731623713 517.012333443832L415.8853380000068 517.012333443832L415.8853380000068 532.5133152974151L325.70852341452354 532.5133152974151ZM431.1505634755886 397.98483210044407L431.1505634755886 382.5133197941111L544.8735463139483 382.5133197941111L544.8735463139483 397.98483210044407L497.1328797686923 397.98483210044407L497.1328797686923 532.5133152974151L479.0975168515956 532.5133152974151L479.0975168515956 397.98483210044407L431.1505634755886 397.98483210044407Z " fill="#ffffff" transform="matrix(0.4653336928611517,0,0,0.46533369286115167,0,87.10363178437098)"/><path d="M685.2910353293436 499.5477759375374L685.2910353293436 384.14572670257553L753.8520956213916 384.14572670257553L753.8520956213916 396.0486885588339L699.3251941655795 396.0486885588339L699.3251941655795 435.725228079695L750.0884924439841 435.725228079695L750.0884924439841 447.4694837778699L699.3251941655795 447.4694837778699L699.3251941655795 487.62214177298137L754.6682987201065 487.62214177298137L754.6682987201065 499.5477759375374L685.2910353293436 499.5477759375374ZM825.1791775257511 417.11126296733676L840.0295394607019 417.11126296733676L809.1725278676208 461.68502108048705L801.3505815049368 453.5229900933385L825.1791775257511 417.11126296733676ZM781.1042101951488 499.5477759375374L766.253848260198 499.5477759375374L796.7707752288145 456.1303055475665L804.9328062159631 464.94983347534645L781.1042101951488 499.5477759375374ZM766.4125544182813 417.11126296733676L781.9204132938637 417.11126296733676L803.9578969591648 451.7092054295277L810.8049340650506 457.92141790307966L840.3696240851665 499.5477759375374L824.8617652095842 499.5477759375374L802.3254907617351 466.0834488902282L795.2970751894683 459.7125302585928L766.4125544182813 417.11126296733676ZM861.2508200272883 417.11126296733676L874.6501542311905 417.11126296733676L874.6501542311905 532.5133122022985L861.2508200272883 532.5133122022985L861.2508200272883 417.11126296733676ZM902.0609749630312 501.1801821349671L902.0609749630312 501.1801821349671Q891.1329223635712 501.1801821349671 883.8551114000303 495.78417276013Q876.5999727447871 490.4108356935905 873.1764541918442 480.7751046670956Q869.7529356389014 471.1393736406008 869.7529356389014 458.4202086856276L869.7529356389014 458.4202086856276Q869.7529356389014 445.67837142235675 873.1764541918442 435.974623470969Q876.5999727447871 426.2482032112836 883.8551114000303 420.87486614474415Q891.1329223635712 415.47885676990705 902.0609749630312 415.47885676990705L902.0609749630312 415.47885676990705Q913.3291121869557 415.47885676990705 921.2417477828303 420.37607536219616Q929.1543833787049 425.2732939544853 933.3260881054697 434.8183357477896Q937.4977928322346 444.36337754109394 937.4977928322346 458.4202086856276L937.4977928322346 458.4202086856276Q937.4977928322346 479.4601107858328 928.1794741219067 490.32014646039994Q918.8838277198763 501.1801821349671 902.0609749630312 501.1801821349671ZM898.7961625681717 489.59463259487563L898.7961625681717 489.59463259487563Q911.696705989526 489.59463259487563 917.908918463078 481.50061853261997Q924.0984586283323 473.4292767786619 924.0984586283323 458.4202086856276L924.0984586283323 458.4202086856276Q924.0984586283323 443.54717444237906 917.908918463078 435.3171265303376Q911.696705989526 427.06440630999845 898.7961625681717 427.06440630999845L898.7961625681717 427.06440630999845Q886.3944099293655 427.06440630999845 880.522282080278 435.3171265303376Q874.6501542311905 443.54717444237906 874.6501542311905 458.4202086856276L874.6501542311905 458.4202086856276Q874.6501542311905 473.4292767786619 880.522282080278 481.50061853261997Q886.3944099293655 489.59463259487563 898.7961625681717 489.59463259487563ZM958.8777795569043 462.65993033728535L959.0364857149877 452.3667023701591L1014.5382964275981 452.3667023701591Q1014.3795902695147 439.64753741518587 1008.57547934532 433.117912625467Q1002.7940407294232 426.58828783574813 991.0271127229507 426.58828783574813L991.0271127229507 426.58828783574813Q977.9678631435129 426.58828783574813 971.9370291363421 434.50092343162277Q965.8835228208735 442.41355902749734 965.8835228208735 457.92141790307966L965.8835228208735 457.92141790307966Q965.8835228208735 473.7466890948288 971.8463399031515 481.8407031570845Q977.8091569854295 489.9120449110425 992.18340044613 489.9120449110425L992.18340044613 489.9120449110425Q1001.7964591643272 489.9120449110425 1006.217559282366 486.80593867426654Q1010.6159870921072 483.72250474578817 1012.248393289537 478.4852015290345L1012.248393289537 478.4852015290345L1026.4639305921542 478.4852015290345Q1024.8315243947245 485.01482631875336 1020.569130434769 490.1614403023165Q1016.3294087831113 495.3080542858796 1009.391682444035 498.2327820562745Q1002.4539561049587 501.1801821349671 992.18340044613 501.1801821349671L992.18340044613 501.1801821349671Q972.5945260769734 501.1801821349671 962.5506935011213 489.9120449110425Q952.5068609252689 478.643907687118 952.5068609252689 458.2388302192465L952.5068609252689 458.2388302192465Q952.5068609252689 437.5163404352082 962.5506935011213 426.40690936936704Q972.5945260769734 415.3201506118236 991.0271127229507 415.3201506118236L991.0271127229507 415.3201506118236Q1001.1616345319935 415.3201506118236 1009.4823716772255 419.55987226348134Q1017.8031088224575 423.79959391513904 1022.8590335728302 433.117912625467Q1027.9149583232029 442.41355902749734 1027.9149583232029 458.0801240611631L1027.9149583232029 458.0801240611631L1027.9149583232029 462.65993033728535L958.8777795569043 462.65993033728535ZM1061.2205792124287 451.0743807971939L1061.2205792124287 499.5477759375374L1047.843917316824 499.5477759375374L1047.843917316824 417.11126296733676L1061.2205792124287 417.11126296733676L1061.2205792124287 429.6717217642265Q1065.1428885479195 423.3234754408887 1070.946999472114 419.31047687220735Q1076.728438088011 415.3201506118236 1086.6815814306724 415.3201506118236L1086.6815814306724 415.3201506118236Q1100.2396217926585 415.3201506118236 1108.08424046364 422.91537389153126Q1115.9061868263238 430.4879248629414 1115.9061868263238 447.9682745604179L1115.9061868263238 447.9682745604179L1115.9061868263238 499.5477759375374L1102.370818772636 499.5477759375374L1102.370818772636 448.4443930346682Q1102.370818772636 436.70013733649336 1097.4736001803467 431.8029187442042Q1092.5763815880578 426.905700151915 1083.2580628777296 426.905700151915L1083.2580628777296 426.905700151915Q1076.5697319299275 426.905700151915 1071.5818241044476 429.3543094480596Q1066.6165885872656 431.8029187442042 1063.918583899847 437.0175496526602Q1061.2205792124287 442.25485286941387 1061.2205792124287 451.0743807971939L1061.2205792124287 451.0743807971939ZM1200.315190618419 438.831334316471L1187.2559410389813 438.831334316471Q1186.2583594738853 432.4604156848356 1182.109327055418 429.6037048393336Q1177.937622328653 426.7469939938316 1169.616885183421 426.7469939938316L1169.616885183421 426.7469939938316Q1160.6386510975576 426.7469939938316 1155.9908278965427 429.9211171555005Q1151.3430046955273 433.117912625467 1151.3430046955273 438.1738373758396L1151.3430046955273 438.1738373758396Q1151.3430046955273 443.38846828429564 1155.015918639744 445.99578373852364Q1158.688832583961 448.6257715010493 1166.193366630478 450.4168838565625L1166.193366630478 450.4168838565625L1179.2526162099161 453.6816962514219Q1190.8381657500076 456.4477178637333 1196.392881282928 462.0024333966539Q1201.9475968158486 467.55714892957445 1201.9475968158486 476.6940891735214L1201.9475968158486 476.6940891735214Q1201.9475968158486 487.3047294568145 1193.604187362319 494.24245579589075Q1185.2834502170867 501.1801821349671 1168.3018913021583 501.1801821349671L1168.3018913021583 501.1801821349671Q1153.1341170510404 501.1801821349671 1144.9720860638918 495.1493481277962Q1136.8100550767435 489.09584181232765 1135.336355037397 476.5353830154379L1135.336355037397 476.5353830154379L1149.3705138736332 476.5353830154379Q1150.3454231304313 483.2237139632402 1154.267732465922 486.39783712490913Q1158.190041801413 489.59463259487563 1167.9844789859912 489.59463259487563L1167.9844789859912 489.59463259487563Q1179.0939100518326 489.59463259487563 1183.7417332528476 486.23913096682566Q1188.389556453863 482.9063016470733 1188.389556453863 477.5102922722362L1188.389556453863 477.5102922722362Q1188.389556453863 472.4543675218636 1184.9660379009201 469.4389505182782Q1181.5425193479773 466.40086120639506 1173.8566068350788 464.45104269279847L1173.8566068350788 464.45104269279847L1160.7973572556411 461.18623029793906Q1149.5292200317167 458.4202086856276 1143.8157983407127 452.9335100775999Q1138.1023766497087 447.4694837778699 1138.1023766497087 438.99004047455446L1138.1023766497087 438.99004047455446Q1138.1023766497087 428.0393155667968 1146.1963907119643 421.69106924345897Q1154.267732465922 415.3201506118236 1169.616885183421 415.3201506118236L1169.616885183421 415.3201506118236Q1183.8097501777406 415.3201506118236 1191.5636796155318 421.28296769410156Q1199.317609053323 427.2231124680819 1200.315190618419 438.831334316471L1200.315190618419 438.831334316471ZM1223.1688773824349 462.65993033728535L1223.3275835405184 452.3667023701591L1278.8293942531286 452.3667023701591Q1278.670688095045 439.64753741518587 1272.8665771708506 433.117912625467Q1267.0624662466562 426.58828783574813 1255.3182105484811 426.58828783574813L1255.3182105484811 426.58828783574813Q1242.2589609690435 426.58828783574813 1236.2281269618725 434.50092343162277Q1230.174620646404 442.41355902749734 1230.174620646404 457.92141790307966L1230.174620646404 457.92141790307966Q1230.174620646404 473.7466890948288 1236.137437728682 481.8407031570845Q1242.10025481096 489.9120449110425 1256.4518259633628 489.9120449110425L1256.4518259633628 489.9120449110425Q1266.0875569898576 489.9120449110425 1270.5086571078964 486.80593867426654Q1274.9070849176378 483.72250474578817 1276.5394911150674 478.4852015290345L1276.5394911150674 478.4852015290345L1290.7323561093867 478.4852015290345Q1289.099949911957 485.01482631875336 1284.8602282602997 490.1614403023165Q1280.6205066086418 495.3080542858796 1273.6827802695657 498.2327820562745Q1266.7450539304891 501.1801821349671 1256.4518259633628 501.1801821349671L1256.4518259633628 501.1801821349671Q1236.8629515942062 501.1801821349671 1226.8417913266517 489.9120449110425Q1216.7979587507994 478.643907687118 1216.7979587507994 458.2388302192465L1216.7979587507994 458.2388302192465Q1216.7979587507994 437.5163404352082 1226.8417913266517 426.40690936936704Q1236.8629515942062 415.3201506118236 1255.3182105484811 415.3201506118236L1255.3182105484811 415.3201506118236Q1265.4300600492265 415.3201506118236 1273.7734695027561 419.55987226348134Q1282.094206647988 423.79959391513904 1287.1501313983608 433.117912625467Q1292.2060561487333 442.41355902749734 1292.2060561487333 458.0801240611631L1292.2060561487333 458.0801240611631L1292.2060561487333 462.65993033728535L1223.1688773824349 462.65993033728535ZM1343.9669359922336 396.0486885588339L1343.9669359922336 384.14572670257553L1431.459373712807 384.14572670257553L1431.459373712807 396.0486885588339L1394.7302342706384 396.0486885588339L1394.7302342706384 499.5477759375374L1380.8547815924858 499.5477759375374L1380.8547815924858 396.0486885588339L1343.9669359922336 396.0486885588339ZM1445.9923233315908 450.73429617272933L1445.9923233315908 499.5477759375374L1432.5929891276887 499.5477759375374L1432.5929891276887 417.11126296733676L1445.9923233315908 417.11126296733676L1445.9923233315908 431.6442125861207Q1448.917051101986 424.6157970138539 1454.2223712436326 420.87486614474415Q1459.527691385279 417.11126296733676 1467.5310162143442 417.11126296733676L1467.5310162143442 417.11126296733676L1474.8768441027778 417.11126296733676L1474.8768441027778 428.53810634934473L1465.739903858831 428.53810634934473Q1456.1041728323362 428.53810634934473 1451.0482480819637 434.0928218822653Q1445.9923233315908 439.64753741518587 1445.9923233315908 450.73429617272933L1445.9923233315908 450.73429617272933ZM1559.60326021104 487.96222639744593L1559.60326021104 499.5477759375374L1550.7837322832597 499.5477759375374Q1544.7528982760887 499.5477759375374 1541.4880858812294 495.4667604439631Q1538.2232734863696 491.38574495038876 1538.0418950199887 482.09009854835847L1538.0418950199887 482.09009854835847L1539.8556796837997 482.5662170226088Q1536.7495734470235 491.0683326342219 1529.6531409498639 496.1242573845945Q1522.5340361444064 501.1801821349671 1510.6310742881483 501.1801821349671L1510.6310742881483 501.1801821349671Q1501.4941340442015 501.1801821349671 1495.0325261793755 498.4141605226556Q1488.593590622847 495.6254666020465 1485.2380889947972 490.07075106912595Q1481.9052596750448 484.53870784450305 1481.9052596750448 476.0365922328899L1481.9052596750448 476.0365922328899Q1481.9052596750448 469.34826128508763 1484.353868971189 464.70043808407246Q1486.8024782673338 460.0526148830573 1491.1102168438847 457.1959040375553Q1495.4406277287326 454.3391931920533 1501.1540494197366 452.9335100775999Q1506.867471110741 451.5504992714442 1513.238389742376 451.5504992714442L1513.238389742376 451.5504992714442L1538.2232734863696 451.5504992714442L1538.2232734863696 443.72855290876015Q1538.2232734863696 435.0677311390636 1533.5527779770568 430.8280094874059Q1528.904954776042 426.58828783574813 1518.453020650832 426.58828783574813L1518.453020650832 426.58828783574813Q1509.1573742488022 426.58828783574813 1504.4188618145963 430.011806388691Q1499.6803493803905 433.4353249416339 1498.7054401235923 440.1236558894362L1498.7054401235923 440.1236558894362L1485.170072069904 440.1236558894362Q1485.9862751686192 432.1203310603711 1490.2259968202766 426.65630476064104Q1494.4657184719345 421.19227846091104 1501.811546360368 418.2448783822185Q1509.1573742488022 415.3201506118236 1518.95181143338 415.3201506118236L1518.95181143338 415.3201506118236Q1525.3227300650155 415.3201506118236 1531.194857914103 416.79385065116986Q1537.0669857631906 418.2448783822185 1541.646792039313 421.69106924345897Q1546.2039260071374 425.11458779640185 1548.901930694556 430.8280094874059Q1551.5999353819743 436.5414311784099 1551.5999353819743 445.02087448172534L1551.5999353819743 445.02087448172534L1551.5999353819743 487.96222639744593L1559.60326021104 487.96222639744593ZM1495.123215412566 476.0365922328899L1495.123215412566 476.0365922328899Q1495.123215412566 483.06500780515677 1499.3629370642238 486.48852635809965Q1503.6026587158813 489.9120449110425 1512.263480485578 489.9120449110425L1512.263480485578 489.9120449110425Q1524.3478208082174 489.9120449110425 1531.2855471472935 484.19862322003854Q1538.2232734863696 478.4852015290345 1538.2232734863696 469.03084896892074L1538.2232734863696 469.03084896892074L1538.2232734863696 462.0024333966539L1513.3970959004596 462.0024333966539Q1504.5775679726798 462.0024333966539 1499.9297447716644 465.58465810768024Q1495.2819215706495 469.1895551270042 1495.123215412566 476.0365922328899ZM1610.5252646475278 501.1801821349671L1610.5252646475278 501.1801821349671Q1590.618977962204 501.1801821349671 1580.8245407776258 490.00273414423305Q1571.0301035930474 478.825286153499 1571.0301035930474 458.2388302192465L1571.0301035930474 458.2388302192465Q1571.0301035930474 437.6750465932916 1581.1419530937928 426.4975986025576Q1591.2764749028356 415.3201506118236 1610.2078523313608 415.3201506118236L1610.2078523313608 415.3201506118236Q1619.8435833578556 415.3201506118236 1627.1894112462896 418.65297993157594Q1634.5352391347233 422.00848155962586 1639.0923731025478 427.8806094087133Q1643.67217937867 433.7527372578008 1644.6470886354682 441.59735592878246L1644.6470886354682 441.59735592878246L1631.0890482734826 441.59735592878246Q1630.114139016684 435.2264372971471 1625.466315815669 431.0774048786799Q1620.8184926146541 426.905700151915 1610.3665584894443 426.905700151915L1610.3665584894443 426.905700151915Q1596.4911058112916 426.905700151915 1590.460271804121 435.15842037225417Q1584.4067654886521 443.38846828429564 1584.4067654886521 458.2388302192465L1584.4067654886521 458.2388302192465Q1584.4067654886521 473.111864462495 1590.460271804121 481.3419123745365Q1596.4911058112916 489.59463259487563 1610.3665584894443 489.59463259487563L1610.3665584894443 489.59463259487563Q1620.3197018321061 489.59463259487563 1625.216920424395 486.0804248087422Q1630.114139016684 482.5662170226088 1631.0890482734826 475.5604737586396L1631.0890482734826 475.5604737586396L1644.9645009516353 475.5604737586396Q1643.9895916948367 482.72492318069226 1639.8405592763697 488.52903410488676Q1635.668854549605 494.3331450290813 1628.2323374279804 497.7566635820242Q1620.8184926146541 501.1801821349671 1610.5252646475278 501.1801821349671ZM1685.2985374131276 454.1578147256722L1694.7528899732415 445.99578373852364L1737.694241888962 499.5477759375374L1721.0527675984981 499.5477759375374L1685.2985374131276 454.1578147256722ZM1677.952709524694 382.5133205051458L1677.952709524694 499.5477759375374L1664.5533753207915 499.5477759375374L1664.5533753207915 382.5133205051458L1677.952709524694 382.5133205051458ZM1673.5316094066552 472.2956613637802L1673.5316094066552 456.9465086462813L1714.6818489668626 417.11126296733676L1731.663407881791 417.11126296733676L1673.5316094066552 472.2956613637802ZM1749.12108527097 462.65993033728535L1749.2797914290531 452.3667023701591L1804.7816021416638 452.3667023701591Q1804.6228959835803 439.64753741518587 1798.8187850593858 433.117912625467Q1793.0373464434888 426.58828783574813 1781.2704184370164 426.58828783574813L1781.2704184370164 426.58828783574813Q1768.2111688575787 426.58828783574813 1762.1803348504077 434.50092343162277Q1756.149500843237 442.41355902749734 1756.149500843237 457.92141790307966L1756.149500843237 457.92141790307966Q1756.149500843237 473.7466890948288 1762.0896456172172 481.8407031570845Q1768.0524626994952 489.9120449110425 1782.4267061601959 489.9120449110425L1782.4267061601959 489.9120449110425Q1792.0624371866907 489.9120449110425 1796.4608649964316 486.80593867426654Q1800.859292806173 483.72250474578817 1802.4916990036027 478.4852015290345L1802.4916990036027 478.4852015290345L1816.7072363062198 478.4852015290345Q1815.0748301087901 485.01482631875336 1810.8351084571323 490.1614403023165Q1806.572714497177 495.3080542858796 1799.6349881581004 498.2327820562745Q1792.6972618190243 501.1801821349671 1782.4267061601959 501.1801821349671L1782.4267061601959 501.1801821349671Q1762.8378317910392 501.1801821349671 1752.793999215187 489.9120449110425Q1742.7501666393346 478.643907687118 1742.7501666393346 458.2388302192465L1742.7501666393346 458.2388302192465Q1742.7501666393346 437.5163404352082 1752.793999215187 426.40690936936704Q1762.8378317910392 415.3201506118236 1781.2704184370164 415.3201506118236L1781.2704184370164 415.3201506118236Q1791.4049402460591 415.3201506118236 1799.7256773912914 419.55987226348134Q1808.0464145365231 423.79959391513904 1813.1023392868956 433.117912625467Q1818.180936345566 442.41355902749734 1818.180936345566 458.0801240611631L1818.180936345566 458.0801240611631L1818.180936345566 462.65993033728535L1749.12108527097 462.65993033728535ZM1851.4638849264943 450.73429617272933L1851.4638849264943 499.5477759375374L1838.0872230308896 499.5477759375374L1838.0872230308896 417.11126296733676L1851.4638849264943 417.11126296733676L1851.4638849264943 431.6442125861207Q1854.4112850051865 424.6157970138539 1859.7166051468334 420.87486614474415Q1865.02192528848 417.11126296733676 1873.025250117545 417.11126296733676L1873.025250117545 417.11126296733676L1880.3710780059787 417.11126296733676L1880.3710780059787 428.53810634934473L1871.2341377620314 428.53810634934473Q1861.5984067355366 428.53810634934473 1856.5424819851646 434.0928218822653Q1851.4638849264943 439.64753741518587 1851.4638849264943 450.73429617272933L1851.4638849264943 450.73429617272933Z " fill="#ffffff" transform="matrix(0.4653336928611517,0,0,0.46533369286115167,0,87.10363178437098)"/></g></svg>